<svg width="260" height="219" viewBox="0 0 260 219" fill="none" xmlns="http://www.w3.org/2000/svg">
<path opacity="0.08" d="M111.031 12.0469L110.468 12.8734L110.472 12.8756L111.031 12.0469ZM136.344 46.0781L135.411 46.4386L135.414 46.4456L136.344 46.0781ZM136.203 173.766L135.274 173.395L135.272 173.4L136.203 173.766ZM111.875 207.516L112.447 208.336L112.452 208.332L111.875 207.516ZM17.6562 29.0625L16.8351 28.4918L16.8319 28.4964L17.6562 29.0625ZM55.3438 44.8125L55.977 45.5865L55.9853 45.5796L55.3438 44.8125ZM48.7344 166.734L47.8832 167.259L47.8891 167.269L48.7344 166.734ZM95.8438 167.438L94.9856 166.924L94.984 166.927L95.8438 167.438ZM96.8281 53.8125L95.9672 54.3212L95.9706 54.327L96.8281 53.8125ZM72.0781 1.9375C87.0016 1.9375 99.7828 5.5962 110.468 12.8734L111.594 11.2203C100.53 3.68505 87.3422 -0.0625 72.0781 -0.0625V1.9375ZM110.472 12.8756C121.235 20.1429 129.561 31.3022 135.411 46.4386L137.277 45.7176C131.314 30.2916 122.765 18.7633 111.591 11.2181L110.472 12.8756ZM135.414 46.4456C141.347 61.4636 144.344 82.5065 144.344 109.641H146.344C146.344 82.3998 143.341 61.0676 137.274 45.7107L135.414 46.4456ZM144.344 109.641C144.344 137.056 141.3 158.285 135.274 173.395L137.132 174.136C143.294 158.684 146.344 137.163 146.344 109.641H144.344ZM135.272 173.4C129.322 188.555 121.314 199.623 111.298 206.699L112.452 208.332C122.873 200.971 131.085 189.538 137.134 174.131L135.272 173.4ZM111.303 206.695C101.29 213.677 88.6124 217.203 73.2031 217.203V219.203C88.9188 219.203 102.023 215.604 112.447 208.336L111.303 206.695ZM73.2031 217.203C57.7979 217.203 44.9269 213.632 34.5319 206.549L33.4056 208.201C44.1981 215.556 57.4833 219.203 73.2031 219.203V217.203ZM34.5319 206.549C24.1357 199.465 15.9478 188.672 10.0041 174.091L8.15211 174.846C14.2085 189.703 22.6143 200.848 33.4056 208.201L34.5319 206.549ZM10.0041 174.091C4.07587 159.548 1.07812 138.746 1.07812 111.609H-0.921875C-0.921875 138.847 2.08038 159.952 8.15211 174.846L10.0041 174.091ZM1.07812 111.609C1.07812 73.6971 6.93758 46.4352 18.4806 29.6286L16.8319 28.4964C4.93742 45.8148 -0.921875 73.5841 -0.921875 111.609H1.07812ZM18.4774 29.6332C31.3177 11.1579 49.1485 1.9375 72.0781 1.9375V-0.0625C48.5078 -0.0625 30.0573 9.46706 16.8351 28.4918L18.4774 29.6332ZM73.0625 37.3438C66.1692 37.3438 60.0364 39.5841 54.7022 44.0454L55.9853 45.5796C60.9636 41.4159 66.6433 39.3438 73.0625 39.3438V37.3438ZM54.7105 44.0385C49.3174 48.4511 45.3057 56.0019 42.5637 66.4972L44.4988 67.0028C47.1943 56.6856 51.0576 49.6114 55.977 45.5865L54.7105 44.0385ZM42.5637 66.4972C39.8122 77.0288 38.4531 92.3653 38.4531 112.453H40.4531C40.4531 92.4159 41.8128 77.2837 44.4988 67.0028L42.5637 66.4972ZM38.4531 112.453C38.4531 138.619 41.5354 156.968 47.8833 167.259L49.5855 166.209C43.5584 156.438 40.4531 138.6 40.4531 112.453H38.4531ZM47.8891 167.269C54.3145 177.434 62.7147 182.641 73.0625 182.641V180.641C63.5353 180.641 55.7168 175.91 49.5797 166.2L47.8891 167.269ZM73.0625 182.641C83.0372 182.641 90.9308 177.666 96.7035 167.948L94.984 166.927C89.5067 176.147 82.2128 180.641 73.0625 180.641V182.641ZM96.7019 167.951C103.693 156.267 107.109 136.907 107.109 110.062H105.109C105.109 136.843 101.682 155.733 94.9856 166.924L96.7019 167.951ZM107.109 110.062C107.109 96.4353 106.334 84.8929 104.776 75.4466C103.219 66.0111 100.871 58.6066 97.6856 53.298L95.9706 54.327C98.973 59.3309 101.266 66.4577 102.802 75.7722C104.338 85.0759 105.109 96.5022 105.109 110.062H107.109ZM97.689 53.3038C91.4633 42.768 83.2512 37.3438 73.0625 37.3438V39.3438C82.3738 39.3438 90.0054 44.232 95.9672 54.3212L97.689 53.3038ZM200.891 6.14062V5.14062H200.332L200.039 5.61617L200.891 6.14062ZM259.812 6.14062H260.812V5.14062H259.812V6.14062ZM259.812 213V214H260.812V213H259.812ZM220.719 213H219.719V214H220.719V213ZM220.719 43.125H221.719V42.125H220.719V43.125ZM178.109 43.125L177.258 42.6005L176.319 44.125H178.109V43.125ZM200.891 7.14062H259.812V5.14062H200.891V7.14062ZM258.812 6.14062V213H260.812V6.14062H258.812ZM259.812 212H220.719V214H259.812V212ZM221.719 213V43.125H219.719V213H221.719ZM220.719 42.125H178.109V44.125H220.719V42.125ZM178.961 43.6495L201.742 6.66508L200.039 5.61617L177.258 42.6005L178.961 43.6495Z" fill="#191B21"/>
</svg>
