<svg width="303" height="219" viewBox="0 0 303 219" fill="none" xmlns="http://www.w3.org/2000/svg">
<path opacity="0.08" d="M111.031 12.0459L110.468 12.8724L110.472 12.8747L111.031 12.0459ZM136.344 46.0771L135.411 46.4377L135.414 46.4446L136.344 46.0771ZM136.203 173.765L135.274 173.394L135.272 173.399L136.203 173.765ZM111.875 207.515L112.447 208.335L112.452 208.331L111.875 207.515ZM17.6562 29.0615L16.8351 28.4908L16.8319 28.4954L17.6562 29.0615ZM55.3438 44.8115L55.977 45.5855L55.9853 45.5786L55.3438 44.8115ZM48.7344 166.733L47.8832 167.258L47.8891 167.268L48.7344 166.733ZM95.8438 167.437L94.9856 166.923L94.984 166.926L95.8438 167.437ZM96.8281 53.8115L95.9672 54.3203L95.9706 54.326L96.8281 53.8115ZM72.0781 1.93652C87.0016 1.93652 99.7828 5.59522 110.468 12.8724L111.594 11.2194C100.53 3.68408 87.3422 -0.0634766 72.0781 -0.0634766V1.93652ZM110.472 12.8747C121.235 20.1419 129.561 31.3012 135.411 46.4377L137.277 45.7166C131.314 30.2906 122.765 18.7624 111.591 11.2171L110.472 12.8747ZM135.414 46.4446C141.347 61.4627 144.344 82.5055 144.344 109.64H146.344C146.344 82.3988 143.341 61.0666 137.274 45.7097L135.414 46.4446ZM144.344 109.64C144.344 137.055 141.3 158.284 135.274 173.394L137.132 174.135C143.294 158.683 146.344 137.162 146.344 109.64H144.344ZM135.272 173.399C129.322 188.555 121.314 199.622 111.298 206.698L112.452 208.331C122.873 200.97 131.085 189.537 137.134 174.13L135.272 173.399ZM111.303 206.694C101.29 213.676 88.6124 217.202 73.2031 217.202V219.202C88.9188 219.202 102.023 215.603 112.447 208.335L111.303 206.694ZM73.2031 217.202C57.7979 217.202 44.9269 213.631 34.5319 206.548L33.4056 208.2C44.1981 215.555 57.4833 219.202 73.2031 219.202V217.202ZM34.5319 206.548C24.1357 199.464 15.9478 188.671 10.0041 174.09L8.15211 174.845C14.2085 189.702 22.6143 200.847 33.4056 208.2L34.5319 206.548ZM10.0041 174.09C4.07587 159.547 1.07812 138.745 1.07812 111.608H-0.921875C-0.921875 138.846 2.08038 159.951 8.15211 174.845L10.0041 174.09ZM1.07812 111.608C1.07812 73.6961 6.93758 46.4342 18.4806 29.6277L16.8319 28.4954C4.93742 45.8138 -0.921875 73.5832 -0.921875 111.608H1.07812ZM18.4774 29.6322C31.3177 11.157 49.1485 1.93652 72.0781 1.93652V-0.0634766C48.5078 -0.0634766 30.0573 9.46608 16.8351 28.4908L18.4774 29.6322ZM73.0625 37.3428C66.1692 37.3428 60.0364 39.5831 54.7022 44.0444L55.9853 45.5786C60.9636 41.4149 66.6433 39.3428 73.0625 39.3428V37.3428ZM54.7105 44.0376C49.3174 48.4501 45.3057 56.0009 42.5637 66.4962L44.4988 67.0018C47.1943 56.6846 51.0576 49.6105 55.977 45.5855L54.7105 44.0376ZM42.5637 66.4962C39.8122 77.0278 38.4531 92.3643 38.4531 112.452H40.4531C40.4531 92.415 41.8128 77.2827 44.4988 67.0018L42.5637 66.4962ZM38.4531 112.452C38.4531 138.618 41.5354 156.967 47.8833 167.258L49.5855 166.208C43.5584 156.437 40.4531 138.599 40.4531 112.452H38.4531ZM47.8891 167.268C54.3145 177.433 62.7147 182.64 73.0625 182.64V180.64C63.5353 180.64 55.7168 175.909 49.5797 166.199L47.8891 167.268ZM73.0625 182.64C83.0372 182.64 90.9308 177.665 96.7035 167.947L94.984 166.926C89.5067 176.146 82.2128 180.64 73.0625 180.64V182.64ZM96.7019 167.95C103.693 156.266 107.109 136.906 107.109 110.062H105.109C105.109 136.842 101.682 155.732 94.9856 166.923L96.7019 167.95ZM107.109 110.062C107.109 96.4344 106.334 84.8919 104.776 75.4456C103.219 66.0101 100.871 58.6056 97.6856 53.297L95.9706 54.326C98.973 59.33 101.266 66.4567 102.802 75.7712C104.338 85.0749 105.109 96.5012 105.109 110.062H107.109ZM97.689 53.3028C91.4633 42.767 83.2512 37.3428 73.0625 37.3428V39.3428C82.3738 39.3428 90.0054 44.2311 95.9672 54.3203L97.689 53.3028ZM203.703 72.7959V73.7959H204.669L204.703 72.8307L203.703 72.7959ZM165.312 72.7959L164.314 72.7497L164.265 73.7959H165.312V72.7959ZM186.266 20.2021L186.968 20.9144L186.968 20.9144L186.266 20.2021ZM269.516 8.95215L269.028 9.82515L269.038 9.8307L269.516 8.95215ZM292.578 31.874L291.709 32.3693L291.715 32.3789L292.578 31.874ZM290.75 101.905L289.854 101.46L289.852 101.465L290.75 101.905ZM252.5 152.108L251.779 151.415L251.774 151.42L252.5 152.108ZM229.297 176.577L228.571 175.889L226.97 177.577H229.297V176.577ZM302.984 176.577H303.984V175.577H302.984V176.577ZM302.984 212.999V213.999H303.984V212.999H302.984ZM159.688 212.999H158.688V213.999H159.688V212.999ZM159.688 194.155L158.973 193.455L158.688 193.747V194.155H159.688ZM223.672 128.905L222.961 128.202L222.958 128.205L223.672 128.905ZM254.469 91.2178L253.589 90.7431L253.587 90.7463L254.469 91.2178ZM254.188 45.6553L253.48 46.3624L253.487 46.3687L253.493 46.3749L254.188 45.6553ZM203.703 71.7959H165.312V73.7959H203.703V71.7959ZM166.311 72.8421C167.334 50.7204 174.248 33.4492 186.968 20.9144L185.564 19.4899C172.408 32.455 165.354 50.2464 164.314 72.7497L166.311 72.8421ZM186.968 20.9144C199.79 8.2764 216.215 1.93652 236.328 1.93652V-0.0634766C215.754 -0.0634766 198.804 6.4404 185.564 19.4899L186.968 20.9144ZM236.328 1.93652C248.745 1.93652 259.635 4.57622 269.028 9.82509L270.003 8.0792C260.271 2.64058 249.036 -0.0634766 236.328 -0.0634766V1.93652ZM269.038 9.8307C278.522 14.9872 286.078 22.4911 291.709 32.3693L293.447 31.3788C287.641 21.1944 279.821 13.4171 269.993 8.0736L269.038 9.8307ZM291.715 32.3789C297.449 42.1815 300.297 52.134 300.297 62.249H302.297C302.297 51.7391 299.333 41.4416 293.441 31.3691L291.715 32.3789ZM300.297 62.249C300.297 74.3381 296.836 87.4041 289.854 101.46L291.646 102.35C298.726 88.094 302.297 74.7224 302.297 62.249H300.297ZM289.852 101.465C282.981 115.486 270.312 132.133 251.779 151.415L253.221 152.801C271.812 133.459 284.644 116.637 291.648 102.345L289.852 101.465ZM251.774 151.42L228.571 175.889L230.022 177.265L253.226 152.796L251.774 151.42ZM229.297 177.577H302.984V175.577H229.297V177.577ZM301.984 176.577V212.999H303.984V176.577H301.984ZM302.984 211.999H159.688V213.999H302.984V211.999ZM160.688 212.999V194.155H158.688V212.999H160.688ZM160.402 194.855L224.386 129.605L222.958 128.205L158.973 193.455L160.402 194.855ZM224.383 129.608C239.864 113.939 250.216 101.292 255.351 91.6893L253.587 90.7463C248.596 100.081 238.417 112.559 222.961 128.202L224.383 129.608ZM255.349 91.6924C260.553 82.0408 263.203 73.2503 263.203 65.3428H261.203C261.203 72.8103 258.697 81.2698 253.589 90.7432L255.349 91.6924ZM263.203 65.3428C263.203 57.1247 260.436 50.2952 254.882 44.9357L253.493 46.3749C258.626 51.3279 261.203 57.6234 261.203 65.3428H263.203ZM254.895 44.9482C249.433 39.4867 242.37 36.7803 233.797 36.7803V38.7803C241.911 38.7803 248.442 41.3238 253.48 46.3624L254.895 44.9482ZM233.797 36.7803C225.075 36.7803 217.773 40.0418 211.958 46.535L213.448 47.8693C218.883 41.8 225.644 38.7803 233.797 38.7803V36.7803ZM211.958 46.535C206.137 53.0348 203.085 61.8126 202.704 72.7611L204.703 72.8307C205.072 62.2167 208.019 53.932 213.448 47.8693L211.958 46.535Z" fill="#191B21"/>
</svg>
