<svg width="305" height="219" viewBox="0 0 305 219" fill="none" xmlns="http://www.w3.org/2000/svg">
<path opacity="0.08" d="M111.031 12.0469L110.468 12.8734L110.472 12.8756L111.031 12.0469ZM136.344 46.0781L135.411 46.4386L135.414 46.4456L136.344 46.0781ZM136.203 173.766L135.274 173.395L135.272 173.4L136.203 173.766ZM111.875 207.516L112.447 208.336L112.452 208.332L111.875 207.516ZM17.6562 29.0625L16.8351 28.4918L16.8319 28.4964L17.6562 29.0625ZM55.3438 44.8125L55.977 45.5865L55.9853 45.5796L55.3438 44.8125ZM48.7344 166.734L47.8832 167.259L47.8891 167.269L48.7344 166.734ZM95.8438 167.438L94.9856 166.924L94.984 166.927L95.8438 167.438ZM96.8281 53.8125L95.9672 54.3212L95.9706 54.327L96.8281 53.8125ZM72.0781 1.9375C87.0016 1.9375 99.7828 5.5962 110.468 12.8734L111.594 11.2203C100.53 3.68505 87.3422 -0.0625 72.0781 -0.0625V1.9375ZM110.472 12.8756C121.235 20.1429 129.561 31.3022 135.411 46.4386L137.277 45.7176C131.314 30.2916 122.765 18.7633 111.591 11.2181L110.472 12.8756ZM135.414 46.4456C141.347 61.4636 144.344 82.5065 144.344 109.641H146.344C146.344 82.3998 143.341 61.0676 137.274 45.7107L135.414 46.4456ZM144.344 109.641C144.344 137.056 141.3 158.285 135.274 173.395L137.132 174.136C143.294 158.684 146.344 137.163 146.344 109.641H144.344ZM135.272 173.4C129.322 188.555 121.314 199.623 111.298 206.699L112.452 208.332C122.873 200.971 131.085 189.538 137.134 174.131L135.272 173.4ZM111.303 206.695C101.29 213.677 88.6124 217.203 73.2031 217.203V219.203C88.9188 219.203 102.023 215.604 112.447 208.336L111.303 206.695ZM73.2031 217.203C57.7979 217.203 44.9269 213.632 34.5319 206.549L33.4056 208.201C44.1981 215.556 57.4833 219.203 73.2031 219.203V217.203ZM34.5319 206.549C24.1357 199.465 15.9478 188.672 10.0041 174.091L8.15211 174.846C14.2085 189.703 22.6143 200.848 33.4056 208.201L34.5319 206.549ZM10.0041 174.091C4.07587 159.548 1.07812 138.746 1.07812 111.609H-0.921875C-0.921875 138.847 2.08038 159.952 8.15211 174.846L10.0041 174.091ZM1.07812 111.609C1.07812 73.6971 6.93758 46.4352 18.4806 29.6286L16.8319 28.4964C4.93742 45.8148 -0.921875 73.5841 -0.921875 111.609H1.07812ZM18.4774 29.6332C31.3177 11.1579 49.1485 1.9375 72.0781 1.9375V-0.0625C48.5078 -0.0625 30.0573 9.46706 16.8351 28.4918L18.4774 29.6332ZM73.0625 37.3438C66.1692 37.3438 60.0364 39.5841 54.7022 44.0454L55.9853 45.5796C60.9636 41.4159 66.6433 39.3438 73.0625 39.3438V37.3438ZM54.7105 44.0385C49.3174 48.4511 45.3057 56.0019 42.5637 66.4972L44.4988 67.0028C47.1943 56.6856 51.0576 49.6114 55.977 45.5865L54.7105 44.0385ZM42.5637 66.4972C39.8122 77.0288 38.4531 92.3653 38.4531 112.453H40.4531C40.4531 92.4159 41.8128 77.2837 44.4988 67.0028L42.5637 66.4972ZM38.4531 112.453C38.4531 138.619 41.5354 156.968 47.8833 167.259L49.5855 166.209C43.5584 156.438 40.4531 138.6 40.4531 112.453H38.4531ZM47.8891 167.269C54.3145 177.434 62.7147 182.641 73.0625 182.641V180.641C63.5353 180.641 55.7168 175.91 49.5797 166.2L47.8891 167.269ZM73.0625 182.641C83.0372 182.641 90.9308 177.666 96.7035 167.948L94.984 166.927C89.5067 176.147 82.2128 180.641 73.0625 180.641V182.641ZM96.7019 167.951C103.693 156.267 107.109 136.907 107.109 110.062H105.109C105.109 136.843 101.682 155.733 94.9856 166.924L96.7019 167.951ZM107.109 110.062C107.109 96.4353 106.334 84.8929 104.776 75.4466C103.219 66.0111 100.871 58.6066 97.6856 53.298L95.9706 54.327C98.973 59.3309 101.266 66.4577 102.802 75.7722C104.338 85.0759 105.109 96.5022 105.109 110.062H107.109ZM97.689 53.3038C91.4633 42.768 83.2512 37.3438 73.0625 37.3438V39.3438C82.3738 39.3438 90.0054 44.232 95.9672 54.3212L97.689 53.3038ZM208.203 57.1875V58.1875H208.94L209.158 57.4839L208.203 57.1875ZM170.375 57.1875L169.383 57.0597L169.238 58.1875H170.375V57.1875ZM186.828 20.3438L186.111 19.6471L186.11 19.6476L186.828 20.3438ZM276.828 17.1094L276.142 17.8371L276.145 17.8398L276.828 17.1094ZM286.531 80.6719L285.699 80.1172L285.694 80.1243L286.531 80.6719ZM264.734 99.0938L264.294 98.1958L261.999 99.3209L264.448 100.052L264.734 99.0938ZM294.125 118.781L293.325 119.381L293.332 119.39L294.125 118.781ZM284.281 198.938L284.966 199.667L284.968 199.664L284.281 198.938ZM182.891 200.062L182.197 200.783L182.2 200.785L182.891 200.062ZM162.078 150.422V149.422H161.018L161.08 150.48L162.078 150.422ZM201.031 150.422L202.019 150.266L201.886 149.422H201.031V150.422ZM212.141 174.328L211.464 175.065L211.471 175.071L211.477 175.076L212.141 174.328ZM256.859 173.203L256.163 172.485L256.158 172.49L256.859 173.203ZM218.469 117.797H217.469V118.785L218.457 118.797L218.469 117.797ZM218.469 84.0469L218.39 83.05L217.469 83.1229V84.0469H218.469ZM239.562 79.6875L239.987 80.5928L239.995 80.589L239.562 79.6875ZM250.391 70.5469L249.565 69.9829L249.56 69.9899L249.555 69.9969L250.391 70.5469ZM248.422 44.3906L247.732 45.1148L247.741 45.1234L248.422 44.3906ZM217.625 43.9688L218.217 44.7747L218.228 44.7668L217.625 43.9688ZM208.203 56.1875H170.375V58.1875H208.203V56.1875ZM171.367 57.3153C173.313 42.2058 178.723 30.1382 187.546 21.0399L186.11 19.6476C176.933 29.1118 171.374 41.6067 169.383 57.0597L171.367 57.3153ZM187.546 21.0404C199.908 8.30848 215.441 1.9375 234.219 1.9375V-0.0625C214.934 -0.0625 198.873 6.50402 186.111 19.6471L187.546 21.0404ZM234.219 1.9375C250.955 1.9375 264.906 7.24537 276.142 17.837L277.514 16.3817C265.875 5.41088 251.42 -0.0625 234.219 -0.0625V1.9375ZM276.145 17.8398C287.489 28.4459 293.125 40.9841 293.125 55.5H295.125C295.125 40.3909 289.23 27.3353 277.511 16.3789L276.145 17.8398ZM293.125 55.5C293.125 64.4915 290.651 72.6889 285.699 80.1172L287.363 81.2266C292.536 73.4674 295.125 64.8835 295.125 55.5H293.125ZM285.694 80.1243C280.84 87.5435 273.724 93.5735 264.294 98.1958L265.175 99.9917C274.87 95.239 282.285 88.9878 287.368 81.2194L285.694 80.1243ZM264.448 100.052C276.831 103.748 286.437 110.198 293.325 119.381L294.925 118.181C287.75 108.615 277.763 101.939 265.02 98.1355L264.448 100.052ZM293.332 119.39C300.311 128.482 303.812 139.232 303.812 151.688H305.812C305.812 138.83 302.189 127.643 294.918 118.172L293.332 119.39ZM303.812 151.688C303.812 169.97 297.085 185.459 283.594 198.211L284.968 199.664C298.852 186.541 305.812 170.53 305.812 151.688H303.812ZM283.597 198.208C270.119 210.855 252.937 217.203 231.969 217.203V219.203C253.375 219.203 271.068 212.707 284.966 199.667L283.597 198.208ZM231.969 217.203C212.123 217.203 196.024 211.229 183.581 199.34L182.2 200.785C195.069 213.083 211.689 219.203 231.969 219.203V217.203ZM183.584 199.342C171.143 187.362 164.284 171.07 163.076 150.364L161.08 150.48C162.31 171.586 169.326 188.388 182.197 200.783L183.584 199.342ZM162.078 151.422H201.031V149.422H162.078V151.422ZM200.043 150.578C201.753 161.402 205.524 169.612 211.464 175.065L212.817 173.591C207.319 168.545 203.685 160.817 202.019 150.266L200.043 150.578ZM211.477 175.076C217.497 180.417 225.056 183.062 234.078 183.062V181.062C225.475 181.062 218.409 178.552 212.804 173.58L211.477 175.076ZM234.078 183.062C243.502 183.062 251.356 180.024 257.561 173.916L256.158 172.49C250.363 178.195 243.029 181.062 234.078 181.062V183.062ZM257.555 173.921C263.845 167.825 267 160.347 267 151.547H265C265 159.809 262.062 166.768 256.163 172.485L257.555 173.921ZM267 151.547C267 141.83 262.752 133.632 254.387 126.998L253.144 128.565C261.091 134.868 265 142.514 265 151.547H267ZM254.387 126.998C245.992 120.339 233.976 116.986 218.481 116.797L218.457 118.797C233.712 118.983 245.227 122.286 253.144 128.565L254.387 126.998ZM219.469 117.797V84.0469H217.469V117.797H219.469ZM218.548 85.0437C228.051 84.291 235.227 82.827 239.987 80.5927L239.138 78.7823C234.71 80.8605 227.824 82.3027 218.39 83.05L218.548 85.0437ZM239.995 80.589C244.825 78.2709 248.582 75.1111 251.226 71.0969L249.555 69.9969C247.136 73.6702 243.675 76.6041 239.13 78.786L239.995 80.589ZM251.216 71.1108C253.945 67.1147 255.328 62.8424 255.328 58.3125H253.328C253.328 62.4076 252.086 66.2915 249.565 69.9829L251.216 71.1108ZM255.328 58.3125C255.328 52.4241 253.254 47.5131 249.102 43.6578L247.741 45.1234C251.465 48.5807 253.328 52.9509 253.328 58.3125H255.328ZM249.112 43.6665C244.956 39.7092 239.538 37.7656 232.953 37.7656V39.7656C239.119 39.7656 244.012 41.572 247.732 45.1148L249.112 43.6665ZM232.953 37.7656C227.105 37.7656 221.785 39.5742 217.022 43.1707L218.228 44.7668C222.652 41.4258 227.551 39.7656 232.953 39.7656V37.7656ZM217.033 43.1629C212.267 46.6643 208.999 51.2491 207.248 56.8911L209.158 57.4839C210.782 52.2509 213.795 48.0232 218.217 44.7746L217.033 43.1629Z" fill="#191B21"/>
</svg>
