<svg width="9" height="7" viewBox="0 0 9 7" fill="none" xmlns="http://www.w3.org/2000/svg">
<path d="M3.86328 6.90234H0.910156V5.27344C0.910156 4.25 1.03516 3.36719 1.28516 2.625C1.54297 1.875 1.97266 1.10938 2.57422 0.328125L3.72266 1.23047C3.43359 1.65234 3.21875 2.01562 3.07812 2.32031C2.94531 2.625 2.8125 3.03125 2.67969 3.53906H3.86328V6.90234ZM8.64453 6.90234H5.69141V5.27344C5.69141 4.25 5.81641 3.36719 6.06641 2.625C6.31641 1.875 6.74609 1.10938 7.35547 0.328125L8.50391 1.23047C8.21484 1.65234 8 2.01562 7.85938 2.32031C7.72656 2.625 7.59375 3.03125 7.46094 3.53906H8.64453V6.90234Z" fill="#FFD100"/>
</svg>
